<svg width="600" height="500" viewBox="0 0 600 500" fill="none" xmlns="http://www.w3.org/2000/svg">
<g clip-path="url(#clip0)">
<path opacity="0.1" d="M210.47 490.316C268.273 490.316 315.132 480.862 315.132 469.2C315.132 457.538 268.273 448.084 210.47 448.084C152.667 448.084 105.809 457.538 105.809 469.2C105.809 480.862 152.667 490.316 210.47 490.316Z" fill="#EFCD3D"/>
<path opacity="0.1" d="M348.604 70.5126C310.139 69.0947 273.505 55.8657 238.522 41.3961C203.54 26.9264 168.891 10.8997 131.347 3.23447C107.199 -1.69635 79.5808 -2.39894 60.1284 11.3744C41.401 24.6667 35.3508 47.5485 32.0998 68.7972C29.6511 84.786 28.2128 101.617 34.9169 116.586C39.5764 126.98 47.8376 135.715 53.5551 145.671C73.4473 180.307 59.3855 223.02 37.8351 256.839C27.7314 272.701 15.9934 287.855 8.18987 304.723C0.386315 321.592 -3.22127 340.986 3.60759 358.241C10.3711 375.331 26.4952 388.142 43.9626 397.162C79.4382 415.486 121.226 420.727 162.002 423.702C252.24 430.272 342.952 427.43 433.427 424.576C466.912 423.525 500.539 422.455 533.477 416.942C551.77 413.878 570.652 409.017 583.935 397.282C600.79 382.388 604.969 357.171 593.67 338.498C574.723 307.166 522.351 299.387 509.091 265.77C501.805 247.262 509.287 226.653 519.884 209.493C542.611 172.674 580.702 140.373 582.705 98.2935C584.084 69.3922 565.772 40.4466 537.459 26.7682C507.784 12.4315 466.626 14.2354 444.743 37.9654C422.188 62.3726 382.57 71.7722 348.604 70.5126Z" fill="#EFCD3D"/>
<path d="M318.038 228.97L299.834 215.899L309.016 201.341L260.935 197.258L243.658 211.487L222.03 198.575L203.992 200.885L203.778 195.821C203.555 190.542 203.057 185.28 202.286 180.06C202.363 178.478 202.417 176.661 202.411 174.686C202.411 166.363 201.353 155.33 196.705 147.975L197.775 137.734L189.098 126.815C190.492 123.859 192.08 121.012 193.853 118.295C194.15 117.84 194.447 117.396 194.768 116.966C206.03 116.099 214.916 106.237 214.916 94.1792C214.916 93.6222 214.916 93.0652 214.856 92.5145C214.856 92.293 214.815 92.0651 214.791 91.8436C215.89 92.4766 217.002 93.1095 218.113 93.7425C218.321 94.059 218.559 94.3755 218.82 94.7489L218.874 94.8185L219.207 95.2553L219.314 95.3882C219.433 95.5401 219.557 95.6857 219.682 95.8376L219.765 95.9389C220.08 96.3123 220.413 96.6921 220.77 97.0656C220.812 97.1024 220.852 97.1426 220.889 97.1858L221.334 97.6289L221.459 97.7492C221.84 98.11 222.244 98.4581 222.648 98.7872L222.779 98.8885L223.29 99.262L223.456 99.3759C223.652 99.5025 223.854 99.6354 224.051 99.7557L224.122 99.8C224.354 99.9329 224.591 100.06 224.829 100.18L224.948 100.23C225.15 100.323 225.348 100.412 225.542 100.496L225.727 100.566C225.935 100.642 226.137 100.711 226.351 100.775L226.481 100.813C226.743 100.882 227.004 100.939 227.272 100.984H227.302C227.553 101.027 227.807 101.055 228.062 101.066H228.235C228.462 101.079 228.69 101.079 228.918 101.066H229.067C229.352 101.048 229.636 101.013 229.917 100.958C231.246 100.772 232.523 100.284 233.661 99.5278C233.951 99.3215 234.207 99.0672 234.422 98.7746C235.61 97.1162 234.303 95.2996 234.303 95.2996C233.839 94.1223 230.832 93.2931 230.832 93.2931C230.832 93.2931 221.323 89.0649 221.323 85.6975C221.323 82.3301 218.945 64.8602 194.405 60.8662C194.405 60.8662 178.442 59.9104 173.954 69.0125L173.859 70.0758C172.54 70.9557 171.446 72.7216 170.145 73.2407C169.582 73.3693 169.04 73.5824 168.534 73.8736V73.7534C168.384 73.8933 168.261 74.0632 168.172 74.2534C167.892 74.8459 167.724 75.4911 167.678 76.1523C167.544 76.9601 167.281 77.7373 166.9 78.45C166.793 78.6525 166.674 78.8471 166.543 79.0323V79.0323L166.442 79.2032C167.132 79.2605 167.825 79.1411 168.463 78.8551C168.362 79.7217 168.163 80.572 167.869 81.387C168.246 81.4 168.62 81.2971 168.944 81.0907C169.269 80.8842 169.531 80.5828 169.699 80.2223V80.1717L169.776 80.0577C169.926 79.7647 170.049 79.4574 170.145 79.1399L170.079 79.2159C170.198 78.8045 170.305 78.3867 170.436 77.9816C170.496 77.7534 170.595 77.5389 170.727 77.3486C170.886 77.1783 171.08 77.0501 171.294 76.9742C171.507 76.8983 171.735 76.877 171.958 76.9119L171.714 82.3997H171.821C171.678 82.7989 171.503 83.1843 171.298 83.5517C170.454 85.0075 168.921 86.0013 168.356 87.5964C168.112 88.3657 168.019 89.1799 168.083 89.989C168.083 90.4637 168.136 90.9448 168.172 91.4195V91.3815C168.255 92.6475 168.279 93.8501 167.637 94.8692C167.197 95.5654 166.49 96.0908 166.246 96.882C166.179 97.1025 166.148 97.3339 166.157 97.5656C166.205 98.2593 166.341 98.9428 166.561 99.5974C166.564 99.5849 166.564 99.572 166.561 99.5595C166.709 100.041 166.744 100.554 166.662 101.053C166.395 102.319 164.95 103.376 165.022 104.585C165.018 104.744 165.04 104.903 165.087 105.054C165.365 105.644 165.846 106.098 166.43 106.32C167.347 106.875 168.399 107.122 169.449 107.028C169.843 106.953 170.224 106.814 170.579 106.617C170.163 107.636 169.735 108.643 169.301 109.598C169.235 109.75 169.164 109.902 169.093 110.054C169.093 110.054 165.42 107.44 163.334 112.769C162.725 113.877 162.289 115.083 162.044 116.339C161.94 116.842 161.792 117.334 161.604 117.808C160.678 119.478 159.292 120.804 157.634 121.606C153.379 123.682 136.191 146.513 135.888 152.425C135.739 154.733 135.373 157.019 134.794 159.248C133.441 164.499 133.093 169.986 133.772 175.383C133.984 177.127 134.336 178.848 134.824 180.529C136.648 186.434 137.867 197.454 137.867 197.454L139.84 216.582C139.767 219.223 139.874 221.865 140.161 224.488C138.146 226.938 130.057 237.148 133.148 239.926C135.525 242.116 139.685 241.756 142.021 241.306C140.054 246.49 136.957 255.504 136.547 261.694C135.953 270.853 137.564 282.987 140.113 287.646C142.663 292.304 151.162 304.255 151.162 304.255C151.162 304.255 150.764 320.649 153.801 326.605C156.838 332.561 158.062 344.917 158.062 344.917C158.062 344.917 160.897 355.348 159.477 359.184C158.056 363.02 162.109 366.21 157.854 368.761C153.599 371.311 148.155 428.804 148.155 428.804C148.155 428.804 145.962 466.484 148.155 468.402C148.272 468.493 148.397 468.572 148.529 468.636V481.296C148.529 481.296 147.008 483.954 153.195 484.492C157.432 484.853 169.444 485.67 176.57 486.144L182.091 486.511C182.091 486.511 195.166 489.284 200.943 486.511C206.72 483.739 216.96 483.802 215.439 476.479C215.237 475.482 214.967 474.503 214.63 473.548C212.96 469.004 210.125 468.485 204.901 467.219C204.598 467.149 204.307 467.086 204.039 467.035C198.536 466.016 196.729 468.744 193.645 465.193C190.964 462.123 182.43 458.686 179.523 457.597C179.595 457.37 179.684 457.148 179.755 456.914C178.932 456.765 178.167 456.368 177.55 455.768L185.425 456.3L190.114 456.61C190.114 456.61 201.228 458.971 206.161 456.61C211.094 454.249 219.771 454.312 218.476 448.09C218.305 447.242 218.077 446.409 217.792 445.596C216.372 441.735 213.959 441.311 209.519 440.242C209.264 440.185 209.026 440.128 208.788 440.083C204.111 439.216 202.577 441.533 199.956 438.52C197.71 435.95 190.62 433.07 188.07 432.089C188.07 430.684 186.287 428.684 185.164 426.677C183.844 424.335 186.281 416.138 186.281 416.138L187.672 382.129C188.201 381.878 188.761 381.707 189.336 381.622C189.336 381.622 195.624 375.229 194.203 368.419C193.914 366.359 193.763 364.279 193.752 362.197C195.82 360.152 198.667 357.133 199.475 355.272C200.794 352.24 199.475 337.549 199.475 337.549V281.373L209.995 282.506L219.54 283.55L222.446 283.867L231.991 284.892L253.928 287.253L273.695 283.266L282.247 281.544L299.834 277.999V232.172L318.038 228.97ZM173.253 77.1144L172.029 76.9752C172.433 76.9942 172.861 77.0765 173.253 77.1144Z" fill="url(#paint0_linear)"/>
<path d="M275.371 258.725C269.428 267.783 248.061 262.985 248.061 262.985L231.503 246.484L229.275 244.25L233.013 235.793C233.013 235.793 234.202 236.141 236.24 236.761C246.944 240.072 280.387 251.111 275.371 258.725Z" fill="#EFB7B9"/>
<path opacity="0.1" d="M236.228 236.761C235.497 239.471 233.494 243.528 231.503 246.484L229.275 244.249L233.013 235.793C233.013 235.793 234.214 236.141 236.228 236.761Z" fill="black"/>
<path d="M179.44 141.399C179.44 141.399 164.178 148.608 164.927 166.312C165.465 177.718 166.632 189.08 168.421 200.341C168.421 200.341 165.301 226.982 178.293 233.85C191.285 240.718 203.308 246.364 203.308 246.364C203.308 246.364 223.635 248.693 226.16 249.655C228.686 250.617 236.579 235.907 235.123 233.616C233.667 231.324 215.011 226.52 212.633 222.697C210.256 218.874 204.759 216.513 204.759 216.513C204.759 216.513 199.083 212.854 198.696 209.55C198.31 206.246 199.808 203.784 200.188 202.334C200.569 200.885 201.531 186.89 201.531 186.89C201.531 186.89 207.938 137.075 179.44 141.399Z" fill="#DCE6F2"/>
<path opacity="0.1" d="M189.514 199.613C189.514 199.613 168.576 203.347 170.602 211.152C170.602 211.152 178.204 202.727 189.514 199.613Z" fill="black"/>
<path opacity="0.1" d="M189.674 202.771C189.674 202.771 178.162 212.778 180.415 213.291C182.667 213.804 189.674 202.771 189.674 202.771Z" fill="black"/>
<path opacity="0.1" d="M195.208 206.259C195.208 206.259 192.123 212.987 194.019 212.531C195.915 212.076 195.208 206.259 195.208 206.259Z" fill="black"/>
<path opacity="0.1" d="M237.001 237.477L235.729 237.091C236.092 235.825 236.193 234.799 235.896 234.325C234.439 232.033 215.795 227.235 213.424 223.406C211.053 219.576 205.549 217.222 205.549 217.222C205.549 217.222 199.873 213.563 199.487 210.259C199.101 206.955 200.598 204.493 200.979 203.043C201.359 201.594 202.322 187.593 202.322 187.593C202.322 187.593 208.711 137.784 180.213 142.108C180.213 142.108 164.95 149.323 165.693 167.027C166.232 178.434 167.401 189.796 169.194 201.056C169.194 201.056 166.074 227.697 179.066 234.565C192.058 241.433 204.081 247.079 204.081 247.079C204.081 247.079 224.401 249.402 226.933 250.37C227.89 250.737 229.619 248.845 231.313 246.243L232.276 247.199L248.834 263.694C248.834 263.694 270.2 268.498 276.144 259.441C281.166 251.82 247.729 240.781 237.001 237.477Z" fill="black"/>
<path d="M170.656 74.9497C170.074 75.0708 169.517 75.3001 169.01 75.627C168.415 76.1523 168.415 77.0511 168.267 77.836C168.092 78.9278 167.686 79.9627 167.078 80.8616C167.754 80.9144 168.433 80.7951 169.057 80.5135C168.955 81.3798 168.756 82.2299 168.463 83.0453C168.833 83.0554 169.198 82.9514 169.515 82.746C169.831 82.5405 170.085 82.2423 170.246 81.887C170.56 81.1737 170.809 80.4297 170.989 79.6653C171.045 79.4367 171.141 79.2217 171.274 79.0323C171.821 78.3424 172.837 78.6525 173.681 78.7412C174.383 78.8042 175.089 78.6661 175.724 78.3411C176.36 78.0162 176.902 77.5161 177.295 76.8929C178.192 75.4434 178.246 71.7342 176.106 71.3418C173.871 70.9493 172.481 74.2281 170.656 74.9497Z" fill="#965D7B"/>
<g opacity="0.1">
<path opacity="0.1" d="M168.95 76.4055C169.004 76.0954 169.039 75.7725 169.105 75.4624C168.54 75.9877 168.51 76.8802 168.362 77.6714C168.287 78.1279 168.169 78.5754 168.011 79.007C168.479 78.2126 168.798 77.3292 168.95 76.4055V76.4055Z" fill="black"/>
<path opacity="0.1" d="M169.14 81.6338C169.436 80.8194 169.636 79.9689 169.735 79.1019C169.14 79.3687 168.495 79.4878 167.851 79.4501C167.663 79.8953 167.434 80.3193 167.167 80.716C167.841 80.7716 168.518 80.6543 169.14 80.3742C169.042 81.2412 168.842 82.0916 168.546 82.9061C168.916 82.9153 169.281 82.8111 169.597 82.6057C169.913 82.4003 170.167 82.1025 170.329 81.7477C170.477 81.46 170.597 81.1567 170.686 80.8426C170.511 81.1022 170.278 81.3107 170.008 81.449C169.738 81.5873 169.44 81.6509 169.14 81.6338V81.6338Z" fill="black"/>
<path opacity="0.1" d="M174.359 77.3296C173.515 77.241 172.492 76.9309 171.946 77.6208C171.815 77.8117 171.719 78.0262 171.66 78.2538C171.607 78.4183 171.559 78.5892 171.518 78.7601C172.082 78.2854 172.998 78.5386 173.764 78.6209C174.466 78.682 175.171 78.5429 175.806 78.2181C176.441 77.8933 176.984 77.3944 177.378 76.7726C177.558 76.4653 177.692 76.13 177.776 75.7789C177.369 76.3154 176.845 76.7373 176.249 77.0077C175.653 77.2781 175.004 77.3886 174.359 77.3296Z" fill="black"/>
</g>
<path d="M188.545 127.226L197.609 138.835L196.426 150.551L185.473 132.29L188.545 127.226Z" fill="#DCE6F2"/>
<path opacity="0.1" d="M197.603 138.835L196.491 149.855L196.42 150.551L186.536 134.069L185.473 132.29L185.782 131.778L188.539 127.226L189.151 128.011L197.603 138.835Z" fill="black"/>
<path d="M202.31 111.51C199.243 112.447 196.313 115.662 193.763 119.568C192.04 122.262 190.499 125.084 189.151 128.011C188.313 129.796 187.577 131.512 186.964 133.005L186.536 134.069C185.502 136.67 184.926 138.411 184.926 138.411C184.926 138.411 161.45 119.612 165.164 118.346C166.412 117.922 168.053 115.073 169.675 111.485L169.877 111.029C170.906 108.725 171.916 106.155 172.813 103.737C174.65 98.7683 176.011 94.4514 176.011 94.4514C176.011 94.4514 211.671 108.662 202.31 111.51Z" fill="#EFB7B9"/>
<path d="M216.354 93.3943C216.354 93.3943 221.774 103.838 229.055 102.414C236.335 100.99 233.34 96.806 233.34 96.806L216.354 93.3943Z" fill="#444053"/>
<path d="M205.852 454.914C201.05 457.249 190.192 454.914 190.192 454.914L185.615 454.61C179.672 454.205 169.723 453.521 166.204 453.217C161.069 452.768 162.329 450.527 162.329 450.527V436.988L187.244 430.266C187.244 430.266 197.092 433.855 199.79 436.988C202.352 439.976 203.849 437.678 208.42 438.539C208.646 438.583 208.883 438.634 209.133 438.697C213.471 439.754 215.825 440.172 217.216 444.001C217.495 444.806 217.72 445.631 217.887 446.47C219.171 452.635 210.648 452.591 205.852 454.914Z" fill="#A36468"/>
<path opacity="0.1" d="M217.216 444.001C216.323 444.595 215.385 445.108 214.41 445.533C211.142 447.122 208.033 449.059 204.729 450.559C201.424 452.059 197.864 453.129 194.286 452.844C192.414 452.698 190.501 452.211 188.712 452.781C187.605 453.236 186.563 453.851 185.615 454.61C179.672 454.205 169.723 453.521 166.204 453.217C161.069 452.768 162.329 450.527 162.329 450.527V448.945C162.514 448.945 162.722 448.888 162.959 448.869C164.189 448.848 165.414 449.043 166.585 449.445C169.164 450.192 171.732 450.926 174.311 451.66C174.523 450.808 174.896 450.01 175.407 449.316C175.918 448.621 176.556 448.045 177.283 447.622C178.755 446.79 180.407 446.386 182.073 446.451C186.073 446.508 189.859 448.527 193.853 448.73C194.969 448.839 196.093 448.638 197.116 448.147C197.662 447.856 198.144 447.432 198.679 447.109C199.535 446.668 200.439 446.343 201.371 446.141C203.99 445.446 206.561 444.562 209.067 443.495C209.781 443.197 210.613 442.659 210.518 441.849C210.393 440.773 208.806 440.647 208.39 439.659C208.317 439.481 208.283 439.287 208.291 439.093C208.299 438.899 208.349 438.709 208.437 438.539C208.663 438.583 208.901 438.634 209.151 438.697C213.471 439.754 215.825 440.172 217.216 444.001Z" fill="black"/>
<path d="M200.777 484.537C195.13 487.284 182.352 484.537 182.352 484.537L176.974 484.201C170.008 483.726 158.276 482.935 154.134 482.562C148.089 482.03 149.575 479.397 149.575 479.397V463.44L178.893 455.528C178.893 455.528 190.483 459.75 193.657 463.44C196.67 466.953 198.411 464.25 203.814 465.263C204.081 465.313 204.36 465.377 204.652 465.446C209.757 466.712 212.526 467.187 214.161 471.694C214.492 472.64 214.756 473.611 214.951 474.599C216.425 481.853 206.423 481.796 200.777 484.537Z" fill="#A36468"/>
<path opacity="0.1" d="M214.149 471.694C213.099 472.392 211.995 472.996 210.85 473.498C207.005 475.365 203.344 477.644 199.457 479.41C195.57 481.176 191.38 482.429 187.166 482.1C184.967 481.929 182.715 481.34 180.629 482.024C179.322 482.566 178.092 483.299 176.974 484.201C170.008 483.726 158.276 482.935 154.134 482.562C148.089 482.03 149.575 479.397 149.575 479.397V477.536C149.821 477.493 150.069 477.464 150.318 477.447C151.766 477.419 153.208 477.648 154.585 478.125L163.673 480.732C163.926 479.727 164.369 478.786 164.975 477.969C165.581 477.152 166.337 476.474 167.197 475.979C168.929 474.995 170.876 474.519 172.837 474.599C177.544 474.669 181.996 477.042 186.697 477.283C188.006 477.41 189.324 477.177 190.524 476.606C191.172 476.257 191.713 475.757 192.367 475.384C193.372 474.86 194.437 474.477 195.535 474.245C198.6 473.421 201.61 472.38 204.545 471.13C205.383 470.776 206.363 470.143 206.25 469.193C206.102 467.928 204.236 467.776 203.742 466.611C203.659 466.401 203.621 466.173 203.632 465.945C203.642 465.718 203.7 465.495 203.802 465.294C204.069 465.345 204.349 465.408 204.64 465.478C209.745 466.693 212.515 467.187 214.149 471.694Z" fill="black"/>
<path d="M187.998 375.04L186.412 414.809C186.412 414.809 184.034 422.93 185.324 425.253C186.614 427.576 188.789 429.893 187.998 431.266C187.208 432.64 177.699 447.489 174.626 441.792C171.553 436.096 168.522 411.41 168.522 411.41L171.357 380.92L187.998 375.04Z" fill="#444053"/>
<path d="M194.881 275.955L199.291 282.234V336.846C199.291 336.846 200.58 351.405 199.291 354.411C198.001 357.418 191.463 363.431 191.463 363.431L185.966 333.365L187.155 301.558L194.881 275.955Z" fill="#444053"/>
<path opacity="0.1" d="M187.998 375.04L186.412 414.809C186.412 414.809 184.034 422.93 185.324 425.253C186.614 427.576 188.789 429.893 187.998 431.266C187.208 432.64 177.699 447.489 174.626 441.792C171.553 436.096 168.522 411.41 168.522 411.41L171.357 380.92L187.998 375.04Z" fill="black"/>
<path opacity="0.1" d="M194.881 275.955L199.291 282.234V336.846C199.291 336.846 200.58 351.405 199.291 354.411C198.001 357.418 191.463 363.431 191.463 363.431L185.966 333.365L187.155 301.558L194.881 275.955Z" fill="black"/>
<path d="M199.291 252.662V282.202L194.34 305.198C194.34 305.198 192.753 360.69 194.138 367.438C195.523 374.185 189.383 380.521 189.383 380.521C189.383 380.521 185.817 380.945 185.817 383.895C185.817 386.844 179.874 395.288 179.874 395.288L180.07 411.745C180.07 411.745 182.65 442.552 178.685 448.458C174.721 454.363 180.07 455.211 180.07 455.211C175.119 472.51 151.346 468.504 149.201 466.605C147.055 464.706 149.201 427.361 149.201 427.361C149.201 427.361 154.514 370.394 158.674 367.862C162.835 365.33 158.876 362.165 160.261 358.367C161.646 354.569 158.876 344.233 158.876 344.233C158.876 344.233 157.688 331.991 154.716 326.086C151.744 320.18 152.137 303.932 152.137 303.932C152.137 303.932 143.816 292.115 141.344 287.475C138.871 282.835 137.278 270.809 137.873 261.732C138.277 255.599 141.302 246.667 143.222 241.528C144.143 239.065 144.809 237.47 144.809 237.47L145.373 237.629L177.835 246.68L199.291 252.662Z" fill="#444053"/>
<path opacity="0.1" d="M202.31 111.51C199.243 112.447 196.313 115.662 193.764 119.568H193.098C189.361 119.57 185.689 118.522 182.454 116.53C179.219 114.537 176.535 111.67 174.674 108.218C173.896 106.788 173.27 105.27 172.807 103.693C174.644 98.7239 176.005 94.4071 176.005 94.4071C176.005 94.4071 211.671 108.662 202.31 111.51Z" fill="black"/>
<path d="M214.345 95.6857C214.35 99.1491 213.609 102.567 212.179 105.678C210.748 108.788 208.666 111.507 206.093 113.625C203.52 115.743 200.525 117.204 197.339 117.896C194.152 118.587 190.859 118.49 187.714 117.612C184.568 116.735 181.653 115.1 179.194 112.833C176.735 110.567 174.797 107.73 173.53 104.54C172.263 101.351 171.7 97.8938 171.885 94.4361C172.07 90.9783 172.997 87.6119 174.596 84.5961C175.24 83.3707 175.993 82.2135 176.843 81.1401C178.244 79.3618 179.892 77.8209 181.728 76.5701C184.83 74.4706 188.391 73.2641 192.062 73.0684C195.733 72.8727 199.388 73.6944 202.672 75.4534C205.955 77.2124 208.754 79.8485 210.795 83.104C212.836 86.3595 214.049 90.1232 214.315 94.0273C214.327 94.5843 214.345 95.135 214.345 95.6857Z" fill="#EFB7B9"/>
<path opacity="0.1" d="M196.491 149.855L196.42 150.551L186.536 134.094C185.502 136.696 184.926 138.436 184.926 138.436C184.926 138.436 161.45 119.612 165.164 118.346C166.412 117.922 168.053 115.074 169.675 111.485L169.877 111.029C171.601 116.498 181.615 127.429 185.782 131.809C186.263 132.316 186.661 132.733 186.97 133.037L187.606 133.67L187.939 134.025C189.455 135.689 195.85 143.032 196.491 149.855Z" fill="black"/>
<path d="M203.879 205.695L202.797 242.768L202.607 249.37C202.607 249.37 189.793 248.104 177.835 246.712C168.207 245.591 159.132 244.382 157.735 243.674C155.952 242.781 152.131 242.091 149.117 241.654C146.788 241.319 144.957 241.142 144.957 241.142C144.957 241.142 144.274 241.357 143.222 241.559C140.928 242.002 136.898 242.363 134.55 240.192C131.549 237.413 139.436 227.318 141.403 224.893L141.837 224.368L141.094 217.057L139.162 198.1C139.162 198.1 137.974 187.181 136.191 181.326C135.714 179.662 135.37 177.957 135.163 176.231C134.5 170.883 134.839 165.449 136.161 160.242C136.726 158.03 137.084 155.763 137.231 153.476C137.528 147.621 154.318 124.992 158.478 122.935C160.35 122.005 161.856 120.406 162.734 118.416C163.023 117.79 163.241 117.129 163.381 116.447C165.164 108.218 169.675 111.485 169.675 111.485C170.763 117.922 187.6 134.961 187.6 134.961L187.933 135.316C189.603 137.139 197.044 145.696 196.515 153.001C196.41 155.72 196.791 158.435 197.639 161.002C201.063 172.487 203.032 184.407 203.493 196.448L203.879 205.695Z" fill="#DCE6F2"/>
<path opacity="0.1" d="M180.023 161.673C180.023 161.673 175.862 172.433 172.742 174.174C169.622 175.914 181.508 177.845 180.023 161.673Z" fill="black"/>
<path opacity="0.1" d="M183.143 181.769C183.143 181.769 173.634 183.035 173.634 184.934C173.634 186.833 183.143 181.769 183.143 181.769Z" fill="black"/>
<path opacity="0.1" d="M193.098 194.112C193.098 194.112 179.28 225.444 175.417 226.393C171.553 227.343 193.098 194.112 193.098 194.112Z" fill="black"/>
<path opacity="0.1" d="M187.339 136.55L175.91 141.842L162.115 119.65C162.405 119.024 162.623 118.363 162.763 117.681C164.546 109.453 169.057 112.719 169.057 112.719C170.145 119.156 186.982 136.196 186.982 136.196L187.339 136.55Z" fill="black"/>
<path d="M187.933 135.284L176.504 140.576L162.71 118.384C163 117.758 163.217 117.097 163.358 116.415C165.141 108.187 169.652 111.453 169.652 111.453C170.739 117.89 187.577 134.93 187.577 134.93L187.933 135.284Z" fill="#DCE6F2"/>
<path opacity="0.1" d="M202.607 249.37C202.607 249.37 189.793 248.104 177.835 246.712L199.291 252.693V259.656C198.352 260.561 197.537 261.029 197.009 260.789C194.536 259.681 174.359 256.2 174.359 256.2C174.359 256.2 162.638 249.87 149.991 242.275C149.684 242.094 149.387 241.895 149.1 241.68C147.625 240.613 146.354 239.258 145.355 237.686C143.02 234.084 141.878 229.457 141.385 224.919C141.108 222.318 141.005 219.699 141.076 217.083C141.137 214.116 141.392 211.157 141.837 208.227C140.614 196.881 140.018 185.468 140.054 174.047C140.202 156.324 155.804 149.994 155.804 149.994C184.48 147.304 175.589 196.676 175.589 196.676C175.589 196.676 173.931 210.601 173.479 212.025C173.027 213.449 171.405 215.823 171.625 219.146C171.845 222.469 177.324 226.444 177.324 226.444C177.324 226.444 182.673 229.115 184.878 233.071C186.483 235.989 196.908 239.945 202.797 242.768L202.607 249.37Z" fill="black"/>
<path opacity="0.1" d="M212.212 81.6338C212.222 82.6764 212.02 83.7089 211.617 84.6594C211.313 85.435 210.959 86.1878 210.559 86.9128C209.934 88.2463 209.046 89.4207 207.956 90.3561C206.583 91.4005 204.848 91.6917 203.201 92.1158C201.555 92.5398 199.844 93.2171 198.904 94.7109C198.396 95.6712 198.055 96.7222 197.9 97.8125C197.743 98.9018 197.334 99.9326 196.711 100.813C196.387 101.242 195.938 101.545 195.434 101.674C194.931 101.802 194.402 101.748 193.93 101.522C193.433 101.165 193.056 100.648 192.854 100.047C192.177 98.4201 192.004 96.6162 191.731 94.8628C191.457 93.1095 191.071 91.3056 190.061 89.894C189.05 88.4825 187.262 87.5521 185.675 88.1027C185.144 88.3205 184.659 88.6503 184.251 89.0723C183.842 89.4943 183.518 89.9999 183.297 90.5587C182.858 91.6773 182.557 92.8517 182.4 94.0526C181.663 98.3484 180.793 102.619 179.791 106.864C179.76 107.038 179.693 107.202 179.595 107.345C179.437 107.513 179.223 107.608 179 107.611C177.669 107.801 176.391 106.807 175.048 106.915C174.91 106.924 174.772 106.948 174.638 106.984C172.466 102.965 171.507 98.3311 171.891 93.7117C172.275 89.0923 173.983 84.7101 176.783 81.1591L176.89 81.1274C177.784 80.7896 178.596 80.2448 179.268 79.5324C180.126 78.618 180.92 77.6386 181.645 76.6017L182.121 75.9688C183.487 74.216 185.043 72.6416 186.756 71.2785C187.224 70.8703 187.761 70.561 188.337 70.367C188.831 70.2646 189.336 70.2475 189.835 70.3164C191.888 70.5788 193.957 70.6613 196.022 70.5632C197.461 70.3223 198.911 70.1659 200.367 70.0948C204.129 70.2088 207.338 73.0381 209.715 76.1397C210.993 77.7284 212.134 79.5577 212.212 81.6338Z" fill="black"/>
<path d="M171.821 85.1974C170.995 86.6406 169.503 87.6217 168.944 89.2041C168.124 91.5018 169.509 94.3628 168.237 96.4136C167.815 97.1035 167.12 97.6162 166.882 98.4074C166.478 99.743 167.583 101.167 167.298 102.541C167.013 103.914 165.313 105.073 165.765 106.414C166.032 107 166.5 107.453 167.072 107.68C167.973 108.231 169.009 108.476 170.044 108.383C171.666 108.098 172.873 106.402 174.519 106.275C175.856 106.174 177.134 107.161 178.465 106.978C178.689 106.97 178.901 106.872 179.06 106.706C179.161 106.565 179.228 106.4 179.256 106.225C180.254 101.984 181.126 97.7133 181.871 93.4133C182.023 92.212 182.322 91.0373 182.762 89.9194C182.985 89.3617 183.31 88.8572 183.718 88.4354C184.126 88.0136 184.61 87.6831 185.14 87.4634C186.727 86.9191 188.51 87.8432 189.526 89.2547C190.542 90.6663 190.929 92.4702 191.202 94.2235C191.475 95.9769 191.648 97.7808 192.319 99.4075C192.523 100.011 192.902 100.53 193.401 100.889C194.292 101.439 195.493 101.003 196.176 100.18C196.803 99.2992 197.211 98.2655 197.365 97.1732C197.52 96.0849 197.861 95.036 198.37 94.078C199.309 92.5842 201.026 91.9069 202.667 91.4828C204.307 91.0587 206.036 90.7612 207.421 89.7168C208.51 88.7824 209.397 87.6104 210.024 86.2798C210.904 84.6467 211.724 82.8744 211.653 80.9945C211.576 78.9437 210.434 77.1144 209.216 75.5193C206.839 72.4178 203.623 69.5884 199.861 69.4808C198.406 69.5457 196.955 69.7021 195.517 69.9492C193.451 70.0481 191.382 69.9635 189.33 69.696C188.831 69.6325 188.326 69.6517 187.832 69.753C187.255 69.9408 186.719 70.2508 186.257 70.6645C184.542 72.0254 182.984 73.5976 181.615 75.3484C180.733 76.5944 179.776 77.7784 178.751 78.8931C178.079 79.6067 177.267 80.1535 176.373 80.4945C175.779 80.6717 175.185 80.5451 174.62 80.7413C172.867 81.33 172.635 83.7669 171.821 85.1974Z" fill="#965D7B"/>
<path opacity="0.1" d="M229.055 102.408C224.3 103.338 220.36 99.243 218.179 96.2554C217.509 95.348 216.899 94.392 216.354 93.3943L232.674 96.6731L233.334 96.806C233.334 96.806 236.335 100.99 229.055 102.408Z" fill="black"/>
<g opacity="0.1">
<path opacity="0.1" d="M167.298 100.73C167.364 99.9026 167.246 99.0698 166.953 98.2999C166.953 98.3631 166.9 98.4264 166.882 98.4897C166.626 99.3379 166.971 100.218 167.191 101.098C167.238 100.979 167.274 100.856 167.298 100.73V100.73Z" fill="black"/>
<path opacity="0.1" d="M168.712 90.3688C168.651 91.244 168.667 92.1235 168.76 92.9956C168.821 92.1203 168.805 91.2409 168.712 90.3688Z" fill="black"/>
<path opacity="0.1" d="M209.989 84.4505C209.363 85.784 208.475 86.9584 207.386 87.8939C206.013 88.9383 204.283 89.2294 202.631 89.6535C200.979 90.0776 199.273 90.7549 198.334 92.2487C197.826 93.2094 197.486 94.2602 197.329 95.3502C197.175 96.4422 196.766 97.4757 196.141 98.3568C195.457 99.1797 194.257 99.6227 193.365 99.0657C192.866 98.7066 192.488 98.1879 192.284 97.5846C191.612 95.9579 191.434 94.1602 191.166 92.4006C190.899 90.6409 190.501 88.8433 189.49 87.4318C188.48 86.0203 186.691 85.0898 185.104 85.6405C184.574 85.8592 184.09 86.1893 183.681 86.6112C183.273 87.0331 182.948 87.5382 182.727 88.0964C182.287 89.2143 181.987 90.3891 181.835 91.5904C181.094 95.8903 180.223 100.161 179.22 104.402C179.192 104.577 179.125 104.742 179.024 104.883C178.865 105.049 178.653 105.147 178.43 105.155C177.099 105.338 175.821 104.351 174.483 104.452C172.837 104.579 171.631 106.275 170.008 106.554C168.973 106.653 167.935 106.407 167.036 105.851C166.623 105.662 166.253 105.381 165.949 105.028C165.81 105.24 165.718 105.483 165.68 105.739C165.642 105.994 165.658 106.256 165.729 106.503C165.991 107.092 166.461 107.547 167.036 107.769C167.935 108.325 168.973 108.57 170.008 108.472C171.631 108.193 172.837 106.497 174.483 106.37C175.821 106.269 177.099 107.256 178.43 107.073C178.653 107.065 178.865 106.967 179.024 106.801C179.125 106.66 179.192 106.494 179.22 106.32C180.219 102.1 181.09 97.8293 181.835 93.5083C181.987 92.307 182.287 91.1322 182.727 90.0143C182.948 89.4561 183.273 88.951 183.681 88.5291C184.09 88.1072 184.574 87.7771 185.104 87.5584C186.691 87.0077 188.474 87.9382 189.49 89.3497C190.507 90.7612 190.893 92.5652 191.166 94.3185C191.44 96.0718 191.612 97.8758 192.284 99.5025C192.488 100.106 192.866 100.624 193.365 100.984C194.257 101.534 195.457 101.098 196.141 100.275C196.766 99.3936 197.175 98.3601 197.329 97.2681C197.486 96.1781 197.826 95.1273 198.334 94.1666C199.273 92.6728 200.991 92.0018 202.631 91.5714C204.271 91.141 206.001 90.8561 207.386 89.8117C208.475 88.8763 209.363 87.7019 209.989 86.3684C210.868 84.7417 211.689 82.9694 211.617 81.0895C211.606 80.8477 211.582 80.6069 211.546 80.3679C211.259 81.8166 210.732 83.1992 209.989 84.4505V84.4505Z" fill="black"/>
</g>
<path opacity="0.1" d="M211.641 84.6404C213.165 87.5264 214.068 90.7369 214.286 94.04C208.99 90.8752 204.01 87.4002 201.496 86.1912C197.116 84.0834 180.736 84.3999 174.578 84.5961C175.223 83.3707 175.975 82.2135 176.825 81.1401C178.232 79.3604 179.885 77.8193 181.728 76.5701C184.169 74.9205 186.9 73.8183 189.754 73.3309C192.608 72.8434 195.525 72.981 198.328 73.7352C201.13 74.4894 203.759 75.8443 206.053 77.7171C208.347 79.59 210.259 81.9415 211.671 84.6278L211.641 84.6404Z" fill="black"/>
<path opacity="0.1" d="M230.541 99.724C227.682 100.661 223.016 98.8505 218.179 96.2554C217.509 95.348 216.899 94.392 216.354 93.3943L232.674 96.6731C233.756 97.458 234.029 98.5784 230.541 99.724Z" fill="black"/>
<path d="M194.364 62.6954C194.364 62.6954 178.763 61.746 174.376 70.7658L173.669 78.7602L172.481 78.6209L172.243 84.0581C172.243 84.0581 196.087 82.9504 201.514 85.5582C206.94 88.166 223.801 101.306 230.558 99.0911C237.316 96.8757 229.964 94.8185 229.964 94.8185C229.964 94.8185 220.663 90.622 220.663 87.3305C220.663 84.0391 218.357 66.6515 194.364 62.6954Z" fill="#444053"/>
<path opacity="0.1" d="M164.273 359.051C164.273 359.051 174.228 369.337 178.537 368.545C178.537 368.545 166.353 367.438 164.273 359.051Z" fill="black"/>
<path opacity="0.1" d="M162.193 363.817C162.193 363.817 163.084 369.109 165.462 368.59C167.839 368.071 162.193 363.817 162.193 363.817Z" fill="black"/>
<path opacity="0.1" d="M177.794 452.255C177.794 452.255 163.661 463.965 166.044 464.282C168.427 464.598 177.794 452.255 177.794 452.255Z" fill="black"/>
<path d="M196.7 219.849L242.463 211.918V258.061L198.982 255.637L196.7 219.849Z" fill="#EFCD3D"/>
<path opacity="0.05" d="M196.7 219.849L242.463 211.918V258.061L198.982 255.637L196.7 219.849Z" fill="black"/>
<path d="M242.463 211.918L297.343 216.291L294.306 256.447L242.463 258.061V211.918Z" fill="#EFCD3D"/>
<path opacity="0.1" d="M242.463 211.918L297.343 216.291L294.306 256.447L242.463 258.061V211.918Z" fill="black"/>
<path d="M259.336 197.834L242.463 211.918L297.343 216.291L306.312 201.879L259.336 197.834Z" fill="#EFCD3D"/>
<path d="M180.13 204.467L221.329 199.125L242.463 211.918L196.699 219.849L180.13 204.467Z" fill="#EFCD3D"/>
<path d="M252.495 223.9V286.987L231.058 284.645L221.733 283.633L218.892 283.316L209.573 282.297L196.7 280.892V219.849L242.457 223.165L252.495 223.9Z" fill="#EFCD3D"/>
<path d="M297.343 216.291V277.816L280.161 281.329L271.805 283.038L252.495 286.987V223.9L297.343 216.291Z" fill="#EFCD3D"/>
<path opacity="0.05" d="M297.343 216.291V277.816L280.161 281.329L271.805 283.038L252.495 286.987V223.9L297.343 216.291Z" fill="black"/>
<path d="M180.13 233.128L196.7 219.849L252.495 223.9L244.282 238.635L180.13 233.128Z" fill="#EFCD3D"/>
<path opacity="0.1" d="M180.13 233.128L196.7 219.849L252.495 223.9L244.282 238.635L180.13 233.128Z" fill="white"/>
<path d="M297.343 216.291L252.495 223.9L267.092 237.825L315.132 229.242L297.343 216.291Z" fill="#EFCD3D"/>
<path opacity="0.1" d="M297.343 216.291L252.495 223.9L267.092 237.825L315.132 229.242L297.343 216.291Z" fill="white"/>
<path opacity="0.1" d="M280.161 281.329L271.805 283.038V269.891L279.632 267.79L280.161 281.329Z" fill="white"/>
<path opacity="0.1" d="M231.058 275.948V284.645L221.733 283.633V275.948H231.058Z" fill="white"/>
<path opacity="0.1" d="M218.892 278.689V283.316L209.573 282.297V278.689H218.892Z" fill="white"/>
<path opacity="0.1" d="M246.885 271.334C240.496 280.037 219.397 274.024 219.397 274.024L203.719 256.605L201.591 254.244L205.751 246.015C205.751 246.015 206.94 246.433 208.925 247.167C219.433 251.079 252.263 264.011 246.885 271.334Z" fill="black"/>
<path d="M246.29 270.068C239.901 278.772 218.803 272.758 218.803 272.758L203.124 255.339L200.997 252.978L205.157 244.75C205.157 244.75 206.345 245.167 208.331 245.902C218.838 249.813 251.669 262.745 246.29 270.068Z" fill="#EFB7B9"/>
<path opacity="0.1" d="M208.307 245.902C207.439 248.56 205.234 252.497 203.1 255.339L200.973 252.978L205.133 244.75C205.133 244.75 206.328 245.167 208.307 245.902Z" fill="black"/>
<path d="M156.398 147.462C156.398 147.462 140.797 153.792 140.648 171.515C140.613 182.936 141.208 194.349 142.431 205.695C142.431 205.695 137.974 232.122 150.603 239.717C163.233 247.313 174.971 253.643 174.971 253.643C174.971 253.643 195.148 257.124 197.627 258.232C200.105 259.339 208.717 245.098 207.38 242.724C206.042 240.35 187.672 234.495 185.49 230.539C183.309 226.583 177.936 223.919 177.936 223.919C177.936 223.919 172.457 219.937 172.237 216.614C172.017 213.291 173.634 210.917 174.091 209.493C174.549 208.069 176.207 194.144 176.207 194.144C176.207 194.144 185.074 144.741 156.398 147.462Z" fill="#DCE6F2"/>
<path opacity="0.1" d="M163.53 206.139C163.53 206.139 142.431 208.67 144.066 216.582C144.066 216.582 152.083 208.601 163.53 206.139Z" fill="black"/>
<path opacity="0.1" d="M163.53 209.303C163.53 209.303 151.554 218.64 153.753 219.273C155.952 219.906 163.53 209.303 163.53 209.303Z" fill="black"/>
<path opacity="0.1" d="M168.879 213.101C168.879 213.101 165.462 219.646 167.393 219.304C169.325 218.962 168.879 213.101 168.879 213.101Z" fill="black"/>
<path d="M388.555 71.1392C388.555 71.1392 365.971 69.6897 368.609 86.5646C368.609 86.5646 368.081 89.5459 370.618 90.9005C370.618 90.9005 370.66 89.6345 372.936 90.0713C373.747 90.2166 374.571 90.2591 375.391 90.1979C376.502 90.1189 377.558 89.6543 378.398 88.875V88.875C378.398 88.875 384.751 86.0836 387.224 75.0193C387.224 75.0193 389.054 72.6014 389.007 71.9811L385.191 73.7217C385.191 73.7217 386.493 76.6524 385.465 79.0893C385.465 79.0893 385.346 73.8293 384.609 73.9496C384.46 73.9496 382.63 74.9687 382.63 74.9687C382.63 74.9687 384.87 80.0704 383.177 83.7859C383.177 83.7859 383.818 77.4942 381.928 75.3358L379.242 77.0068C379.242 77.0068 381.863 82.2795 380.086 86.5836C380.086 86.5836 380.544 79.9818 378.677 77.4119L376.241 79.4311C376.241 79.4311 378.707 84.6341 377.203 88.204C377.203 88.204 377.007 80.5198 375.712 79.9375C375.712 79.9375 373.584 81.9376 373.263 82.7605C373.263 82.7605 374.945 86.5583 373.899 88.5268C373.899 88.5268 373.257 83.4061 372.71 83.3808C372.71 83.3808 370.589 86.7735 370.369 89.0775C370.471 86.9296 371.1 84.8477 372.193 83.039C370.97 83.2854 369.842 83.9082 368.948 84.8303C368.948 84.8303 369.275 82.4314 372.716 82.2225C372.716 82.2225 374.499 79.6463 374.939 79.4881C374.939 79.4881 371.516 79.1842 369.442 80.1653C369.442 80.1653 371.266 77.9056 375.569 78.8994L377.946 76.8106C377.946 76.8106 373.441 76.1776 371.528 76.8802C371.528 76.8802 373.727 74.8801 378.594 76.3359L381.209 74.6712C381.209 74.6712 377.37 73.785 375.082 74.1078C375.082 74.1078 377.495 72.7216 381.976 74.2218L383.848 73.3293C383.848 73.3293 381.031 72.7406 380.211 72.6457C379.391 72.5507 379.343 72.3102 379.343 72.3102C381.125 71.9943 382.955 72.2135 384.627 72.9432C384.627 72.9432 388.638 71.4051 388.555 71.1392Z" fill="#EFCD3D"/>
<path opacity="0.1" d="M457.177 155.539C457.177 155.539 434.592 154.09 437.231 170.965C437.231 170.965 436.702 173.946 439.24 175.3C439.24 175.3 439.281 174.034 441.563 174.471C442.374 174.616 443.198 174.659 444.018 174.598C445.116 174.513 446.159 174.051 446.99 173.281V173.281C446.99 173.281 453.349 170.483 455.821 159.419C455.821 159.419 457.646 157.008 457.575 156.387L453.759 158.122C453.759 158.122 455.061 161.052 454.038 163.489C454.038 163.489 453.914 158.229 453.183 158.349C453.034 158.349 451.198 159.369 451.198 159.369C451.198 159.369 453.444 164.477 451.75 168.186C451.75 168.186 452.392 161.894 450.496 159.736L447.84 161.388C447.84 161.388 450.461 166.66 448.684 170.965C448.684 170.965 449.141 164.363 447.275 161.793L444.844 163.818C444.844 163.818 447.305 169.015 445.807 172.585C445.807 172.585 445.611 164.901 444.315 164.318C444.315 164.318 442.188 166.319 441.861 167.141C441.861 167.141 443.549 170.939 442.503 172.908C442.503 172.908 441.861 167.787 441.314 167.762C441.314 167.762 439.192 171.154 438.972 173.458C439.078 171.31 439.709 169.229 440.803 167.42C439.578 167.667 438.448 168.289 437.552 169.211C437.552 169.211 437.885 166.812 441.326 166.603C441.326 166.603 443.079 164.027 443.549 163.869C443.549 163.869 440.125 163.565 438.051 164.546C438.051 164.546 439.876 162.287 444.173 163.312L446.55 161.223C446.55 161.223 442.039 160.59 440.131 161.293C440.131 161.293 442.33 159.293 447.198 160.748L449.813 159.084C449.813 159.084 445.967 158.204 443.679 158.52C443.679 158.52 446.098 157.134 450.579 158.634L452.452 157.742C452.452 157.742 449.634 157.153 448.808 157.058C447.982 156.963 447.941 156.723 447.941 156.723C449.725 156.407 451.556 156.626 453.23 157.356C453.23 157.356 457.248 155.805 457.177 155.539Z" fill="#EFCD3D"/>
<path opacity="0.1" d="M319.975 140.557C319.975 140.557 325.176 117.08 309.105 116.998C309.105 116.998 306.437 115.934 304.755 118.365C304.755 118.365 305.902 118.624 305.123 120.941C304.854 121.76 304.674 122.61 304.588 123.473C304.473 124.65 304.721 125.834 305.295 126.847V126.847C305.295 126.847 306.799 133.999 316.588 138.481C316.588 138.481 318.513 140.81 319.096 140.835L318.145 136.537C318.145 136.537 315.209 137.405 313.129 135.904C313.129 135.904 318.02 136.67 318.026 135.904C318.026 135.746 317.432 133.651 317.432 133.651C317.432 133.651 312.326 135.132 309.176 132.721C309.176 132.721 314.888 134.468 317.212 132.854L316.142 129.739C316.142 129.739 310.793 131.594 307.132 128.992C307.132 128.992 313.164 130.6 315.863 129.081L314.407 126.182C314.407 126.182 309.176 127.878 306.128 125.695C306.128 125.695 313.26 126.796 314.032 125.543C314.032 125.543 312.546 122.967 311.839 122.486C311.839 122.486 308.059 123.612 306.395 122.175C306.395 122.175 311.239 122.372 311.352 121.827C311.352 121.827 308.576 119.023 306.46 118.39C308.432 118.868 310.253 119.885 311.744 121.34C311.722 120.013 311.338 118.722 310.639 117.624C310.639 117.624 312.802 118.384 312.422 122.055C312.422 122.055 314.502 124.334 314.567 124.853C314.567 124.853 315.429 121.315 314.876 118.966C314.876 118.966 316.659 121.27 314.977 125.606L316.499 128.486C316.499 128.486 317.877 123.865 317.527 121.739C317.527 121.739 319.007 124.384 316.826 129.246L317.925 132.278C317.925 132.278 319.393 128.391 319.488 125.948C319.488 125.948 320.362 128.72 318.204 133.17L318.715 135.284C318.715 135.284 319.738 132.429 319.964 131.581C320.189 130.733 320.421 130.727 320.421 130.727C320.412 132.652 319.9 134.537 318.941 136.17C318.941 136.17 319.72 140.588 319.975 140.557Z" fill="#EFCD3D"/>
<path opacity="0.1" d="M270.515 148.557C270.515 148.557 252.376 134.107 245.892 149.76C245.892 149.76 243.913 151.944 245.334 154.558C245.334 154.558 246.011 153.539 247.711 155.229C248.313 155.825 248.979 156.344 249.696 156.773C250.667 157.349 251.787 157.571 252.887 157.406V157.406C252.887 157.406 259.639 158.793 267.413 151.001C267.413 151.001 270.188 150.051 270.45 149.494L266.355 148.728C266.355 148.728 265.927 151.938 263.817 153.374C263.817 153.374 266.426 148.906 265.749 148.583C265.612 148.513 263.568 148.266 263.568 148.266C263.568 148.266 262.807 153.849 259.479 155.957C259.479 155.957 263.264 151.077 262.795 148.165L259.687 147.988C259.687 147.988 259.158 153.931 255.449 156.489C255.449 156.489 259.235 151.241 259.015 148L255.936 148.266C255.936 148.266 255.312 154.045 252.216 156.147C252.216 156.147 256.014 149.615 255.235 148.374C255.235 148.374 252.424 148.798 251.729 149.292C251.729 149.292 251.188 153.431 249.286 154.482C249.286 154.482 251.396 149.83 250.968 149.507C250.968 149.507 247.443 151.096 246.059 152.906C247.257 151.173 248.859 149.802 250.706 148.931C249.557 148.422 248.293 148.281 247.069 148.526C247.069 148.526 248.579 146.716 251.562 148.557C251.562 148.557 254.355 147.437 254.831 147.576C254.831 147.576 252.127 145.317 249.886 144.924C249.886 144.924 252.584 144.101 255.645 147.456L258.73 147.121C258.73 147.121 255.3 143.956 253.333 143.424C253.333 143.424 256.204 143.038 259.514 147.102L262.557 147.247C262.557 147.247 259.805 144.26 257.731 143.184C257.731 143.184 260.459 143.437 263.431 147.317L265.458 147.665C265.458 147.665 263.407 145.526 262.765 144.969C262.123 144.412 262.212 144.177 262.212 144.177C263.866 144.957 265.284 146.211 266.307 147.798C266.307 147.798 270.438 148.817 270.515 148.557Z" fill="#EFCD3D"/>
<path opacity="0.1" d="M330.905 14.2987C330.905 14.2987 312.766 -0.158247 306.282 15.5014C306.282 15.5014 304.303 17.6851 305.723 20.2993C305.723 20.2993 306.401 19.2802 308.101 20.9702C308.706 21.5637 309.374 22.0799 310.092 22.5083C311.062 23.0844 312.183 23.3067 313.283 23.1413V23.1413C313.283 23.1413 320.035 24.5275 327.809 16.7293C327.809 16.7293 330.584 15.7862 330.84 15.2229L326.745 14.4696C326.745 14.4696 326.323 17.6788 324.207 19.1156C324.207 19.1156 326.822 14.6469 326.145 14.3241C326.008 14.2544 323.963 14.0076 323.963 14.0076C323.963 14.0076 323.179 19.603 319.851 21.6981C319.851 21.6981 323.631 16.8179 323.167 13.9063L320.059 13.7291C320.059 13.7291 319.524 19.6726 315.821 22.2235C315.821 22.2235 319.607 16.9762 319.387 13.7354L316.314 14.0012C316.314 14.0012 315.684 19.7866 312.588 21.888C312.588 21.888 316.392 15.3558 315.613 14.1152C315.613 14.1152 312.802 14.5393 312.107 15.033C312.107 15.033 311.566 19.1726 309.664 20.2233C309.664 20.2233 311.774 15.571 311.346 15.2419C311.346 15.2419 307.821 16.8369 306.437 18.6472C307.633 16.9121 309.235 15.5414 311.084 14.6722C309.933 14.1595 308.666 14.0186 307.441 14.2671C307.441 14.2671 308.957 12.4568 311.94 14.2987C311.94 14.2987 314.733 13.1721 315.209 13.3176C315.209 13.3176 312.505 11.0579 310.264 10.6592C310.264 10.6592 312.956 9.84264 316.017 13.191L319.102 12.8556C319.102 12.8556 315.678 9.69073 313.705 9.15271C313.705 9.15271 316.576 8.77293 319.892 12.8366L322.935 12.9758C322.935 12.9758 320.183 9.98823 318.103 8.91851C318.103 8.91851 320.837 9.1717 323.809 13.0518L325.83 13.3999C325.83 13.3999 323.773 11.2858 323.131 10.7415C322.489 10.1971 322.579 9.95658 322.579 9.95658C324.233 10.7355 325.65 11.9891 326.674 13.5772C326.674 13.5772 330.804 14.5393 330.905 14.2987Z" fill="#EFCD3D"/>
<path opacity="0.1" d="M400.216 32.6105C400.216 32.6105 392.965 9.75403 379.29 18.7358C379.29 18.7358 376.496 19.3688 376.276 22.3501C376.276 22.3501 377.376 21.9197 377.863 24.3249C378.044 25.1805 378.317 26.011 378.677 26.7999C379.169 27.8615 379.969 28.7253 380.96 29.2621V29.2621C380.96 29.2621 385.786 34.4841 396.341 32.7561C396.341 32.7561 399.128 33.6549 399.639 33.3447L396.668 30.2369C396.668 30.2369 394.611 32.6232 392.103 32.5282C392.103 32.5282 396.638 30.4268 396.264 29.7495C396.186 29.6166 394.635 28.1797 394.635 28.1797C394.635 28.1797 391.034 32.313 387.17 32.0408C387.17 32.0408 392.882 30.3065 394.047 27.6101L391.586 25.5909C391.586 25.5909 387.985 30.1609 383.569 30.0217C383.569 30.0217 389.512 27.9898 391.016 25.1795L388.341 23.5401C388.341 23.5401 384.775 27.9265 381.079 27.7873C381.079 27.7873 387.687 24.7047 387.705 23.2109C387.705 23.2109 385.168 21.8627 384.33 21.85C384.33 21.85 381.679 24.9326 379.575 24.6541C379.575 24.6541 383.783 22.0906 383.604 21.5652C383.604 21.5652 379.86 20.7487 377.75 21.407C379.659 20.6993 381.708 20.5357 383.694 20.9322C383.015 19.8176 382.047 18.9377 380.906 18.4004C380.906 18.4004 383.117 17.8244 384.597 21.1411C384.597 21.1411 387.497 21.907 387.806 22.3058C387.806 22.3058 386.784 18.8181 385.15 17.1344C385.15 17.1344 387.806 18.0902 388.531 22.7172L391.253 24.2996C391.253 24.2996 390.13 19.6093 388.775 17.97C388.775 17.97 391.349 19.3878 391.907 24.7364L394.344 26.6922C394.344 26.6922 393.666 22.5653 392.525 20.4259C392.525 20.4259 394.641 22.2868 395.022 27.2809L396.501 28.7874C396.501 28.7874 395.955 25.7871 395.729 24.9389C395.503 24.0908 395.687 24.0338 395.687 24.0338C396.632 25.6758 397.132 27.5642 397.131 29.49C397.131 29.49 400.008 32.7751 400.216 32.6105Z" fill="#EFCD3D"/>
<path opacity="0.1" d="M352.895 33.7372C352.895 33.7372 330.37 31.066 332.231 48.0865C332.231 48.0865 331.559 51.0362 334.014 52.5173C334.014 52.5173 334.115 51.2514 336.391 51.821C337.195 52.0054 338.017 52.0924 338.839 52.0806C339.951 52.0592 341.025 51.6525 341.9 50.9222V50.9222C341.9 50.9222 348.384 48.4727 351.41 37.554C351.41 37.554 353.347 35.2436 353.306 34.617L349.413 36.1488C349.413 36.1488 350.601 39.1427 349.413 41.5227C349.413 41.5227 349.537 36.2627 348.818 36.345C348.67 36.345 346.792 37.2565 346.792 37.2565C346.792 37.2565 348.789 42.4784 346.922 46.118C346.922 46.118 347.861 39.8643 346.073 37.6109L343.309 39.1301C343.309 39.1301 345.686 44.5419 343.695 48.7448C343.695 48.7448 344.468 42.1746 342.726 39.5098L340.201 41.4087C340.201 41.4087 342.411 46.732 340.741 50.2196C340.741 50.2196 340.914 42.5354 339.648 41.8835C339.648 41.8835 337.425 43.7824 337.062 44.5672C337.062 44.5672 338.566 48.4283 337.431 50.3589C337.431 50.3589 337.033 45.2129 336.51 45.1622C336.51 45.1622 334.228 48.4347 333.895 50.745C334.101 48.6031 334.83 46.556 336.011 44.8078C334.777 44.9893 333.62 45.5502 332.682 46.4218C332.682 46.4218 333.122 44.0482 336.569 44.0229C336.569 44.0229 338.441 41.548 338.946 41.4151C338.946 41.4151 335.541 40.9277 333.419 41.7948C333.419 41.7948 335.351 39.6301 339.594 40.8897L342.096 38.9338C342.096 38.9338 337.574 37.9591 335.66 38.592C335.66 38.592 337.954 36.6931 342.744 38.4338L345.437 36.9083C345.437 36.9083 341.639 35.8196 339.339 36.0159C339.339 36.0159 341.817 34.7499 346.221 36.5032L348.135 35.712C348.135 35.712 345.347 34.9715 344.527 34.8322C343.707 34.6929 343.677 34.4524 343.677 34.4524C345.474 34.2329 347.293 34.5484 348.931 35.3639C348.931 35.3639 352.937 34.003 352.895 33.7372Z" fill="#EFCD3D"/>
<path opacity="0.1" d="M549.975 219.937C549.975 219.937 527.462 217.266 529.322 234.268C529.322 234.268 528.651 237.217 531.105 238.698C531.105 238.698 531.206 237.432 533.483 237.996C534.286 238.186 535.108 238.273 535.931 238.255C537.043 238.237 538.119 237.83 538.992 237.097V237.097C538.992 237.097 545.476 234.647 548.472 223.735C548.472 223.735 550.409 221.418 550.368 220.798L546.475 222.323C546.475 222.323 547.663 225.324 546.475 227.704C546.475 227.704 546.6 222.437 545.88 222.526C545.732 222.526 543.854 223.431 543.854 223.431C543.854 223.431 545.851 228.653 543.984 232.293C543.984 232.293 544.923 226.045 543.135 223.786L540.371 225.311C540.371 225.311 542.748 230.723 540.763 234.926C540.763 234.926 541.53 228.356 539.788 225.685L537.263 227.583C537.263 227.583 539.473 232.907 537.803 236.388C537.803 236.388 537.976 228.704 536.71 228.058C536.71 228.058 534.493 229.957 534.124 230.742C534.124 230.742 535.634 234.603 534.493 236.534C534.493 236.534 534.095 231.388 533.572 231.337C533.572 231.337 531.289 234.609 530.957 236.92C531.163 234.778 531.892 232.731 533.072 230.983C531.838 231.161 530.681 231.722 529.744 232.597C529.744 232.597 530.184 230.217 533.631 230.191C533.631 230.191 535.509 227.716 536.008 227.59C536.008 227.59 532.603 227.096 530.481 227.963C530.481 227.963 532.413 225.805 536.662 227.064L539.158 225.109C539.158 225.109 534.689 224.21 532.746 224.83C532.746 224.83 535.04 222.931 539.83 224.665L542.522 223.146C542.522 223.146 538.725 222.058 536.425 222.254C536.425 222.254 538.903 220.988 543.307 222.741L545.221 221.944C545.221 221.944 542.433 221.203 541.613 221.07C540.793 220.937 540.763 220.69 540.763 220.69C542.559 220.467 544.379 220.78 546.017 221.596C546.017 221.596 550.035 220.209 549.975 219.937Z" fill="#EFCD3D"/>
<path opacity="0.1" d="M584.393 242.332C584.393 242.332 561.88 239.667 563.74 256.662C563.74 256.662 563.074 259.612 565.523 261.093C565.523 261.093 565.624 259.827 567.9 260.396C568.702 260.582 569.522 260.667 570.343 260.65C571.449 260.626 572.519 260.222 573.392 259.498V259.498C573.392 259.498 579.87 257.048 582.865 246.129C582.865 246.129 584.809 243.819 584.761 243.192L580.868 244.718C580.868 244.718 582.057 247.718 580.868 250.098C580.868 250.098 580.993 244.838 580.274 244.92C580.126 244.92 578.248 245.826 578.248 245.826C578.248 245.826 580.244 251.048 578.378 254.687C578.378 254.687 579.317 248.44 577.528 246.186L574.765 247.705C574.765 247.705 577.142 253.117 575.157 257.32C575.157 257.32 575.924 250.75 574.182 248.085L571.656 249.984C571.656 249.984 573.867 255.307 572.203 258.795C572.203 258.795 572.37 251.105 571.104 250.459C571.104 250.459 568.887 252.358 568.518 253.143C568.518 253.143 570.028 257.004 568.887 258.934C568.887 258.934 568.489 253.788 567.966 253.738C567.966 253.738 565.683 257.01 565.356 259.32C565.562 257.179 566.29 255.133 567.466 253.383C566.233 253.565 565.076 254.126 564.138 254.997C564.138 254.997 564.584 252.617 568.031 252.598C568.031 252.598 569.903 250.123 570.408 249.991C570.408 249.991 567.003 249.503 564.881 250.37C564.881 250.37 566.813 248.206 571.062 249.465L573.558 247.509C573.558 247.509 569.089 246.61 567.145 247.231C567.145 247.231 569.44 245.332 574.23 247.073L576.922 245.547C576.922 245.547 573.124 244.458 570.824 244.655C570.824 244.655 573.303 243.389 577.707 245.142L579.62 244.351C579.62 244.351 576.833 243.61 576.019 243.471C575.205 243.332 575.163 243.091 575.163 243.091C576.96 242.872 578.778 243.187 580.417 244.003C580.417 244.003 584.452 242.604 584.393 242.332Z" fill="#EFCD3D"/>
<path opacity="0.1" d="M507.98 53.701C507.98 53.701 489.841 39.2503 483.357 54.9036C483.357 54.9036 481.378 57.0873 482.798 59.7015C482.798 59.7015 483.476 58.6824 485.176 60.3724C485.778 60.969 486.444 61.4874 487.161 61.9169C488.131 62.4921 489.252 62.7143 490.352 62.5498V62.5498C490.352 62.5498 497.104 63.936 504.883 56.1442C504.883 56.1442 507.653 55.1948 507.915 54.6378L503.831 53.8529C503.831 53.8529 503.404 57.062 501.294 58.4988C501.294 58.4988 503.903 54.0301 503.225 53.7073C503.089 53.6377 501.05 53.3908 501.05 53.3908C501.05 53.3908 500.283 58.9736 496.955 61.0814C496.955 61.0814 500.741 56.2012 500.271 53.2895L497.163 53.1123C497.163 53.1123 496.634 59.0559 492.926 61.613C492.926 61.613 496.717 56.3658 496.492 53.125L493.413 53.3908C493.413 53.3908 492.819 59.1698 489.692 61.2712C489.692 61.2712 493.496 54.739 492.712 53.4984C492.712 53.4984 489.9 53.9225 489.205 54.4162C489.205 54.4162 488.67 58.5558 486.768 59.6065C486.768 59.6065 488.872 54.9542 488.444 54.6314C488.444 54.6314 484.92 56.2202 483.535 58.0305C484.733 56.2972 486.335 54.927 488.183 54.0554C487.033 53.5465 485.769 53.4057 484.546 53.6503C484.546 53.6503 486.061 51.84 489.045 53.682C489.045 53.682 491.832 52.5616 492.307 52.7009C492.307 52.7009 489.603 50.4412 487.363 50.0487C487.363 50.0487 490.061 49.2259 493.122 52.5806L496.206 52.2451C496.206 52.2451 492.783 49.0803 490.81 48.5486C490.81 48.5486 493.68 48.1625 496.991 52.2261L500.04 52.3717C500.04 52.3717 497.282 49.3841 495.208 48.3081C495.208 48.3081 497.942 48.5613 500.907 52.4414L502.934 52.7895C502.934 52.7895 500.884 50.65 500.242 50.093C499.6 49.536 499.695 49.3525 499.695 49.3525C501.346 50.1335 502.761 51.3868 503.784 52.973C503.784 52.973 507.903 53.9605 507.98 53.701Z" fill="#EFCD3D"/>
<path opacity="0.1" d="M521.994 158.027C521.994 158.027 515.742 134.841 501.68 143.165C501.68 143.165 498.863 143.627 498.512 146.627C498.512 146.627 499.63 146.253 500.016 148.678C500.159 149.549 500.398 150.399 500.729 151.21C501.17 152.3 501.934 153.207 502.904 153.792V153.792C502.904 153.792 507.504 159.236 518.119 158.02C518.119 158.02 520.865 159.046 521.388 158.767L518.577 155.514C518.577 155.514 516.419 157.805 513.923 157.59C513.923 157.59 518.535 155.691 518.179 155.014C518.107 154.874 516.621 153.362 516.621 153.362C516.621 153.362 512.853 157.324 509.002 156.862C509.002 156.862 514.785 155.406 516.057 152.786L513.68 150.646C513.68 150.646 509.888 155.039 505.484 154.697C505.484 154.697 511.475 152.944 513.127 150.216L510.524 148.45C510.524 148.45 506.75 152.659 503.089 152.343C503.089 152.343 509.822 149.577 509.906 148.089C509.906 148.089 507.421 146.621 506.583 146.57C506.583 146.57 503.808 149.52 501.698 149.14C501.698 149.14 506.013 146.779 505.858 146.247C505.858 146.247 502.149 145.253 500.016 145.804C501.948 145.194 503.997 145.13 505.959 145.62C505.331 144.475 504.401 143.551 503.285 142.962C503.285 142.962 505.519 142.487 506.851 145.874C506.851 145.874 509.709 146.772 510.007 147.19C510.007 147.19 509.133 143.652 507.57 141.899C507.57 141.899 510.185 142.975 510.714 147.633L513.365 149.349C513.365 149.349 512.437 144.601 511.154 142.93C511.154 142.93 513.662 144.468 514 149.836L516.378 151.906C516.378 151.906 515.873 147.754 514.827 145.576C514.827 145.576 516.865 147.538 517.032 152.539L518.446 154.121C518.446 154.121 518.03 151.096 517.852 150.235C517.673 149.374 517.852 149.254 517.852 149.254C518.731 150.937 519.153 152.849 519.07 154.773C519.07 154.773 521.78 158.179 521.994 158.027Z" fill="#EFCD3D"/>
<path opacity="0.1" d="M382.671 210.272C382.671 210.272 370.529 189.903 359.255 202.094C359.255 202.094 356.675 203.36 357.127 206.366C357.127 206.366 358.108 205.67 359.118 207.886C359.481 208.671 359.932 209.406 360.461 210.076C361.17 210.989 362.141 211.63 363.225 211.899V211.899C363.225 211.899 369.079 215.747 378.945 211.392C378.945 211.392 381.851 211.557 382.279 211.133L378.713 208.854C378.713 208.854 377.245 211.702 374.791 212.24C374.791 212.24 378.725 209.076 378.196 208.493C378.095 208.379 376.265 207.379 376.265 207.379C376.265 207.379 373.691 212.304 369.875 213.019C369.875 213.019 375.04 209.886 375.575 206.987L372.728 205.651C372.728 205.651 370.25 211 365.935 211.981C365.935 211.981 371.225 208.506 372.086 205.392L369.115 204.48C369.115 204.48 366.607 209.651 363.011 210.443C363.011 210.443 368.74 205.771 368.425 204.316C368.425 204.316 365.656 203.651 364.859 203.854C364.859 203.854 362.975 207.518 360.848 207.784C360.848 207.784 364.366 204.227 364.075 203.759C364.075 203.759 360.253 203.917 358.351 205.088C360.048 203.917 362.003 203.241 364.021 203.126C363.118 202.215 361.983 201.605 360.758 201.372C360.758 201.372 362.773 200.252 364.919 203.1C364.919 203.1 367.89 203.1 368.3 203.417C368.3 203.417 366.517 200.252 364.562 199.068C364.562 199.068 367.355 199.321 369.091 203.632L372.092 204.48C372.092 204.48 369.947 200.208 368.277 198.986C368.277 198.986 371.088 199.708 372.829 204.765L375.635 206.031C375.635 206.031 374.054 202.201 372.467 200.41C372.467 200.41 374.939 201.676 376.419 206.43L378.202 207.525C378.202 207.525 377.013 204.746 376.591 203.98C376.169 203.214 376.336 203.037 376.336 203.037C377.622 204.39 378.529 206.097 378.957 207.968C378.957 207.968 382.511 210.487 382.671 210.272Z" fill="#EFCD3D"/>
<path d="M462.472 106.199C462.472 106.199 450.924 85.4443 439.293 97.2555C439.293 97.2555 436.678 98.4581 437.047 101.458C437.047 101.458 438.039 100.787 438.99 103.034C439.33 103.833 439.759 104.586 440.268 105.275C440.95 106.209 441.903 106.876 442.978 107.174V107.174C442.978 107.174 448.713 111.212 458.704 107.174C458.704 107.174 461.604 107.434 462.044 107.022L458.555 104.63C458.555 104.63 457.01 107.421 454.538 107.883C454.538 107.883 458.561 104.826 458.056 104.25C457.949 104.129 456.154 103.066 456.154 103.066C456.154 103.066 453.438 107.908 449.617 108.497C449.617 108.497 454.87 105.535 455.483 102.661L452.677 101.256C452.677 101.256 450.045 106.528 445.7 107.37C445.7 107.37 451.091 104.073 452.042 100.99L449.106 99.9772C449.106 99.9772 446.443 105.041 442.829 105.737C442.829 105.737 448.689 101.256 448.416 99.7937C448.416 99.7937 445.67 99.0341 444.85 99.2113C444.85 99.2113 442.859 102.813 440.725 103.009C440.725 103.009 444.345 99.5785 444.072 99.0974C444.072 99.0974 440.244 99.1291 438.312 100.237C440.043 99.1252 442.016 98.5143 444.036 98.4644C443.157 97.5235 442.04 96.8767 440.821 96.6035C440.821 96.6035 442.871 95.5465 444.981 98.4644C444.981 98.4644 447.952 98.572 448.351 98.8949C448.351 98.8949 446.669 95.73 444.743 94.4261C444.743 94.4261 447.525 94.7679 449.135 99.1354L452.107 100.085C452.107 100.085 450.092 95.7427 448.452 94.4641C448.452 94.4641 451.245 95.2806 452.838 100.389L455.602 101.762C455.602 101.762 454.134 97.8821 452.63 96.0655C452.63 96.0655 455.061 97.4137 456.41 102.212L458.151 103.364C458.151 103.364 457.034 100.547 456.642 99.7683C456.249 98.9898 456.416 98.8189 456.416 98.8189C457.662 100.213 458.52 101.949 458.894 103.832C458.894 103.832 462.3 106.408 462.472 106.199Z" fill="#EFCD3D"/>
<path d="M389.411 149.842C389.411 149.842 390.005 125.726 374.273 129.125C374.273 129.125 371.456 128.663 370.268 131.41C370.268 131.41 371.456 131.41 371.123 133.847C371.015 134.716 371.003 135.596 371.088 136.468C371.195 137.65 371.665 138.763 372.425 139.633C372.425 139.633 375.26 146.304 385.726 148.57C385.726 148.57 388.05 150.437 388.632 150.336L386.849 146.336C386.849 146.336 384.145 147.817 381.821 146.81C381.821 146.81 386.754 146.5 386.618 145.728C386.618 145.57 385.595 143.646 385.595 143.646C385.595 143.646 380.876 146.209 377.34 144.525C377.34 144.525 383.284 145 385.227 142.918L383.569 140.114C383.569 140.114 378.707 143.076 374.606 141.329C374.606 141.329 380.817 141.595 383.171 139.525L381.191 136.993C381.191 136.993 376.395 139.791 372.996 138.31C372.996 138.31 380.199 137.848 380.722 136.449C380.722 136.449 378.773 134.252 377.988 133.917C377.988 133.917 374.505 135.816 372.603 134.79C372.603 134.79 377.358 133.942 377.388 133.379C377.388 133.379 374.137 131.233 371.944 131.075C373.966 131.113 375.943 131.716 377.679 132.822C377.408 131.528 376.788 130.347 375.896 129.423C375.896 129.423 378.16 129.695 378.469 133.347C378.469 133.347 380.948 135.132 381.108 135.626C381.108 135.626 381.281 131.974 380.288 129.796C380.288 129.796 382.475 131.664 381.655 136.272L383.694 138.765C383.694 138.765 384.157 133.942 383.414 131.936C383.414 131.936 385.364 134.208 384.163 139.436L385.809 142.165C385.809 142.165 386.511 138.044 386.136 135.62C386.136 135.62 387.515 138.151 386.255 142.968L387.159 144.931C387.159 144.931 387.616 141.911 387.676 141.031C387.735 140.152 387.961 140.095 387.961 140.095C388.319 141.983 388.177 143.94 387.551 145.747C387.551 145.747 389.15 149.925 389.411 149.842Z" fill="#EFCD3D"/>
<path opacity="0.1" d="M415.419 456.275C424.258 456.275 431.424 454.985 431.424 453.395C431.424 451.804 424.258 450.515 415.419 450.515C406.579 450.515 399.414 451.804 399.414 453.395C399.414 454.985 406.579 456.275 415.419 456.275Z" fill="#EFCD3D"/>
<path opacity="0.1" d="M357.074 500C365.913 500 373.079 498.711 373.079 497.12C373.079 495.529 365.913 494.24 357.074 494.24C348.234 494.24 341.068 495.529 341.068 497.12C341.068 498.711 348.234 500 357.074 500Z" fill="#EFCD3D"/>
<path opacity="0.1" d="M55.3559 477.599C64.1954 477.599 71.3612 476.31 71.3612 474.719C71.3612 473.129 64.1954 471.839 55.3559 471.839C46.5164 471.839 39.3506 473.129 39.3506 474.719C39.3506 476.31 46.5164 477.599 55.3559 477.599Z" fill="#EFCD3D"/>
<path opacity="0.1" d="M478.471 497.12C487.311 497.12 494.477 495.831 494.477 494.24C494.477 492.649 487.311 491.36 478.471 491.36C469.632 491.36 462.466 492.649 462.466 494.24C462.466 495.831 469.632 497.12 478.471 497.12Z" fill="#EFCD3D"/>
<path d="M495.136 462.003C508.335 462.003 519.034 460.076 519.034 457.699C519.034 455.322 508.335 453.395 495.136 453.395C481.938 453.395 471.238 455.322 471.238 457.699C471.238 460.076 481.938 462.003 495.136 462.003Z" fill="#EFCD3D"/>
<path d="M505.044 450.654C506.135 449.71 506.929 448.433 507.32 446.995C507.617 445.539 507.035 443.799 505.733 443.267C504.271 442.672 502.708 443.748 501.52 444.837C500.331 445.926 498.982 447.173 497.431 446.945C498.227 446.174 498.823 445.198 499.16 444.11C499.497 443.022 499.565 441.859 499.356 440.735C499.289 440.269 499.104 439.832 498.821 439.469C498.007 438.545 496.539 438.944 495.564 439.672C492.474 441.989 491.612 446.457 491.594 450.483C491.285 449.033 491.547 447.521 491.541 446.052C491.535 444.584 491.148 442.887 489.966 442.115C489.24 441.684 488.42 441.466 487.588 441.482C486.198 441.431 484.647 441.577 483.702 442.659C482.513 444.001 482.828 446.261 483.85 447.723C484.872 449.185 486.435 450.128 487.874 451.154C489.025 451.886 490.008 452.883 490.75 454.072C490.835 454.237 490.905 454.411 490.958 454.591H499.671C501.622 453.545 503.429 452.22 505.044 450.654V450.654Z" fill="#EFCD3D"/>
<path d="M44.6104 461.332C44.6104 461.332 53.7334 461.035 56.497 458.946C59.2607 456.857 70.541 454.369 71.2245 457.718C71.908 461.066 84.9417 474.358 74.636 474.447C64.3303 474.536 50.6904 472.738 47.9446 470.953C45.1988 469.168 44.6104 461.332 44.6104 461.332Z" fill="#A8A8A8"/>
<path opacity="0.2" d="M74.8083 473.282C64.5026 473.371 50.8628 471.573 48.117 469.788C46.0249 468.434 45.1929 463.566 44.9135 461.319H44.6104C44.6104 461.319 45.2047 469.162 47.9327 470.94C50.6607 472.719 64.3184 474.523 74.6241 474.434C77.5957 474.434 78.6239 473.282 78.5704 471.611C78.1544 472.63 77.0192 473.263 74.8083 473.282Z" fill="black"/>
</g>
<defs>
<linearGradient id="paint0_linear" x1="132.53" y1="274.341" x2="318.038" y2="274.341" gradientUnits="userSpaceOnUse">
<stop stop-color="#808080" stop-opacity="0.25"/>
<stop offset="0.54" stop-color="#808080" stop-opacity="0.12"/>
<stop offset="1" stop-color="#808080" stop-opacity="0.1"/>
</linearGradient>
<clipPath id="clip0">
<rect width="600" height="500" fill="white"/>
</clipPath>
</defs>
</svg>
